<svg xmlns="http://www.w3.org/2000/svg" viewBox="0 0 64 64" role="img" aria-label="BookAVibe icon">
  <rect width="64" height="64" rx="14" fill="#f7f1e8"/>
  <path d="M10 46c0-3 2-5 5-5h18v11H15c-3 0-5-3-5-6z" fill="#2f5d46"/>
  <path d="M54 46c0-3-2-5-5-5H31v11h18c3 0 5-3 5-6z" fill="#2f5d46"/>
  <path d="M31 16h12a7 7 0 0 1 7 7v14H31z" fill="#ffffff" stroke="#a65336" stroke-width="2"/>
  <path d="M24 22h6v9a5 5 0 0 1-5 5h-1z" fill="#a65336"/>
  <path d="M38 14c0-2 1-3 2-4m6 4c0-2 1-3 2-4" fill="none" stroke="#a65336" stroke-linecap="round"/>
</svg>
